<svg width="65" height="64" viewBox="0 0 65 64" fill="none" xmlns="http://www.w3.org/2000/svg">
<rect x="0.5" width="64" height="64" rx="6" fill="#ECECEC"/>
<path d="M46.702 42H18.39C17.1031 42 16 40.9189 16 39.6577V24.3423C16 23.0811 17.1031 22 18.39 22H46.61C47.8969 22 49 23.0811 49 24.3423V39.6577C49 40.9189 47.9889 42 46.702 42ZM18.39 23.6216C18.0223 23.6216 17.5627 23.982 17.5627 24.4324V39.7477C17.5627 40.1982 17.9304 40.5586 18.39 40.5586H46.61C47.0696 40.5586 47.4373 40.1982 47.4373 39.7477V24.3423C47.4373 23.8919 47.0696 23.5315 46.61 23.5315C46.702 23.5315 18.39 23.5315 18.39 23.5315V23.6216ZM20.7799 37.4054V26.6847H23.9053L27.0306 30.5586L30.156 26.6847H33.3733V37.3153H30.2479V31.1892L27.1226 35.0631L23.9972 31.1892V37.3153L20.7799 37.4054ZM40.6351 37.4054L35.8552 32.2703H38.9805V26.7748H42.1059V32.1802H45.2312L40.6351 37.4054Z" fill="#4E4E4E"/>
</svg>
