<svg xmlns="http://www.w3.org/2000/svg">
  <defs>
    <symbol id="block" viewBox="0 0 16 18">
      <path d="M14.5999 11.9304V6.06371C14.5996 5.80651 14.5317 5.5539 14.403 5.33123C14.2743 5.10856 14.0893 4.92364 13.8666 4.79504L8.73324 1.86172C8.51027 1.73299 8.25736 1.66522 7.9999 1.66522C7.74245 1.66522 7.48953 1.73299 7.26657 1.86172L2.13324 4.79504C1.91049 4.92364 1.72549 5.10856 1.59677 5.33123C1.46806 5.5539 1.40017 5.80651 1.3999 6.06371V11.9304C1.40017 12.1876 1.46806 12.4402 1.59677 12.6628C1.72549 12.8855 1.91049 13.0704 2.13324 13.199L7.26657 16.1324C7.48953 16.2611 7.74245 16.3289 7.9999 16.3289C8.25736 16.3289 8.51027 16.2611 8.73324 16.1324L13.8666 13.199C14.0893 13.0704 14.2743 12.8855 14.403 12.6628C14.5317 12.4402 14.5996 12.1876 14.5999 11.9304Z" stroke="currentColor" stroke-width="1.46667" stroke-linecap="round" stroke-linejoin="round"/>
      <path d="M4.69995 3.28455L7.99995 5.19121L11.3 3.28455" stroke="currentColor" stroke-width="1.46667" stroke-linecap="round" stroke-linejoin="round"/>
      <path d="M4.6999 14.7098V10.9039L1.3999 8.99719" stroke="currentColor" stroke-width="1.46667" stroke-linecap="round" stroke-linejoin="round"/>
      <path d="M14.6 8.99719L11.3 10.9039V14.7098" stroke="currentColor" stroke-width="1.46667" stroke-linecap="round" stroke-linejoin="round"/>
      <path d="M1.59814 5.30109L8.00014 9.00441L14.4021 5.30109" stroke="currentColor" stroke-width="1.46667" stroke-linecap="round" stroke-linejoin="round"/>
      <path d="M8 16.3892V8.99719" stroke="currentColor" stroke-width="1.46667" stroke-linecap="round" stroke-linejoin="round"/>
    </symbol>

    <symbol id="edit" viewBox="0 0 16 16" fill="none">
      <g clip-path="url(#clip0_2897_6258)">
      <path d="M11.3335 2.00004C11.5086 1.82494 11.7165 1.68605 11.9452 1.59129C12.174 1.49653 12.4192 1.44775 12.6668 1.44775C12.9145 1.44775 13.1597 1.49653 13.3884 1.59129C13.6172 1.68605 13.8251 1.82494 14.0002 2.00004C14.1753 2.17513 14.3142 2.383 14.4089 2.61178C14.5037 2.84055 14.5524 3.08575 14.5524 3.33337C14.5524 3.58099 14.5037 3.82619 14.4089 4.05497C14.3142 4.28374 14.1753 4.49161 14.0002 4.66671L5.00016 13.6667L1.3335 14.6667L2.3335 11L11.3335 2.00004Z" stroke="#3C3C3C" stroke-width="1.33333" stroke-linecap="round" stroke-linejoin="round"/>
      </g>
      <defs>
      <clipPath id="clip0_2897_6258">
      <rect width="16" height="16" fill="white"/>
      </clipPath>
      </defs>
    </symbol>

    <symbol id="chart" viewBox="0 0 16 16">
      <path d="M13.25 15C13.7312 15 14.1434 14.8285 14.4864 14.4855C14.8294 14.1425 15.0006 13.7307 15 13.25V7.125C15 6.64375 14.8285 6.23163 14.4855 5.88863C14.1425 5.54563 13.7307 5.37442 13.25 5.375C12.7687 5.375 12.3566 5.5465 12.0136 5.8895C11.6706 6.2325 11.4994 6.64433 11.5 7.125V13.25C11.5 13.7312 11.6715 14.1434 12.0145 14.4864C12.3575 14.8294 12.7693 15.0006 13.25 15ZM8 15C8.48125 15 8.89337 14.8285 9.23637 14.4855C9.57937 14.1425 9.75058 13.7307 9.75 13.25V2.75C9.75 2.26875 9.5785 1.85663 9.2355 1.51363C8.8925 1.17063 8.48067 0.999418 8 1C7.51875 1 7.10663 1.1715 6.76363 1.5145C6.42062 1.8575 6.24942 2.26933 6.25 2.75V13.25C6.25 13.7312 6.4215 14.1434 6.7645 14.4864C7.1075 14.8294 7.51933 15.0006 8 15ZM2.75 15C3.23125 15 3.64338 14.8285 3.98638 14.4855C4.32938 14.1425 4.50058 13.7307 4.5 13.25V10.625C4.5 10.1438 4.3285 9.73162 3.9855 9.38863C3.6425 9.04562 3.23067 8.87442 2.75 8.875C2.26875 8.875 1.85663 9.0465 1.51363 9.3895C1.17063 9.7325 0.999418 10.1443 1 10.625V13.25C1 13.7312 1.1715 14.1434 1.5145 14.4864C1.8575 14.8294 2.26933 15.0006 2.75 15Z" fill="var(--icon-fill)"/>
      <defs>
      <clipPath id="clip0_3067_14753">
      <rect width="14" height="14" fill="white" transform="matrix(-1 0 0 1 15 1)"/>
      </clipPath>
      </defs>
    </symbol>

    <symbol id="more" viewBox="0 0 17 16" >
      <path d="M7.1665 3C7.1665 2.17157 7.83808 1.5 8.6665 1.5C9.49493 1.5 10.1665 2.17157 10.1665 3C10.1665 3.82843 9.49493 4.5 8.6665 4.5C7.83808 4.5 7.1665 3.82843 7.1665 3Z" fill="#818181"/>
      <path d="M7.1665 8C7.1665 7.17157 7.83808 6.5 8.6665 6.5C9.49493 6.5 10.1665 7.17157 10.1665 8C10.1665 8.82843 9.49493 9.5 8.6665 9.5C7.83808 9.5 7.1665 8.82843 7.1665 8Z" fill="#818181"/>
      <path d="M7.1665 13C7.1665 12.1716 7.83808 11.5 8.6665 11.5C9.49493 11.5 10.1665 12.1716 10.1665 13C10.1665 13.8284 9.49493 14.5 8.6665 14.5C7.83808 14.5 7.1665 13.8284 7.1665 13Z" fill="#818181"/>
    </symbol>

    <symbol id="plus" viewBox="0 0 16 16">
      <g clip-path="url(#clip0_3176_3247)">
      <path d="M9.04348 1.04348C9.04348 0.766731 8.93354 0.501318 8.73785 0.305628C8.54216 0.109937 8.27675 0 8 0C7.72325 0 7.45784 0.109937 7.26215 0.305628C7.06646 0.501318 6.95652 0.766731 6.95652 1.04348V6.95652H1.04348C0.766731 6.95652 0.501318 7.06646 0.305628 7.26215C0.109937 7.45784 0 7.72325 0 8C0 8.27675 0.109937 8.54216 0.305628 8.73785C0.501318 8.93354 0.766731 9.04348 1.04348 9.04348H6.95652V14.9565C6.95652 15.2333 7.06646 15.4987 7.26215 15.6944C7.45784 15.8901 7.72325 16 8 16C8.27675 16 8.54216 15.8901 8.73785 15.6944C8.93354 15.4987 9.04348 15.2333 9.04348 14.9565V9.04348H14.9565C15.2333 9.04348 15.4987 8.93354 15.6944 8.73785C15.8901 8.54216 16 8.27675 16 8C16 7.72325 15.8901 7.45784 15.6944 7.26215C15.4987 7.06646 15.2333 6.95652 14.9565 6.95652H9.04348V1.04348Z" fill="var(--icon-fill)" />
      </g>
      <defs>
      <clipPath id="clip0_3176_3247">
      <rect width="16" height="16" />
      </clipPath>
      </defs>
    </symbol>

    <symbol id="customize" viewBox="0 0 48 48" fill="none">
      <rect x="1.5" y="1.5" width="45" height="45" rx="6.5" fill="white"/>
      <rect x="1.5" y="1.5" width="45" height="45" rx="6.5" stroke="#093C56" stroke-width="3"/>
      <path d="M35.6667 14L10.6668 14" stroke="#093C56" stroke-width="2.5" stroke-linecap="round"/>
      <path d="M35.6667 24L10.6668 24" stroke="#093C56" stroke-width="2.5" stroke-linecap="round"/>
      <path d="M35.6667 34L10.6668 34" stroke="#093C56" stroke-width="2.5" stroke-linecap="round"/>
      <path d="M17.3335 17.125C15.6076 17.125 14.2085 15.7259 14.2085 14C14.2085 12.2741 15.6076 10.875 17.3335 10.875C19.0594 10.875 20.4585 12.2741 20.4585 14C20.4585 15.7259 19.0594 17.125 17.3335 17.125Z" fill="#093C56"/>
      <path d="M29.0007 27.125C27.2749 27.125 25.8757 25.7259 25.8757 24C25.8757 22.2741 27.2749 20.875 29.0007 20.875C30.7266 20.875 32.1257 22.2741 32.1257 24C32.1257 25.7259 30.7266 27.125 29.0007 27.125Z" fill="#093C56"/>
      <path d="M17.3335 37.125C15.6076 37.125 14.2085 35.7259 14.2085 34C14.2085 32.2741 15.6076 30.875 17.3335 30.875C19.0594 30.875 20.4585 32.2741 20.4585 34C20.4585 35.7259 19.0594 37.125 17.3335 37.125Z" fill="#093C56"/>
    </symbol>

    <symbol id="customizeNegative" viewBox="0 0 48 48" fill="none">
      <rect x="1.5" y="1.5" width="45" height="45" rx="6.5" fill="#093C56"/>
      <rect x="1.5" y="1.5" width="45" height="45" rx="6.5" stroke="#093C56" stroke-width="3"/>
      <path d="M35.6667 14L10.6667 14" stroke="white" stroke-width="2.5" stroke-linecap="round"/>
      <path d="M35.6667 24L10.6667 24" stroke="white" stroke-width="2.5" stroke-linecap="round"/>
      <path d="M35.6667 34L10.6667 34" stroke="white" stroke-width="2.5" stroke-linecap="round"/>
      <path d="M17.3334 17.125C15.6076 17.125 14.2084 15.7259 14.2084 14C14.2084 12.2741 15.6076 10.875 17.3334 10.875C19.0593 10.875 20.4584 12.2741 20.4584 14C20.4584 15.7259 19.0593 17.125 17.3334 17.125Z" fill="white"/>
      <path d="M29.0006 27.125C27.2747 27.125 25.8756 25.7259 25.8756 24C25.8756 22.2741 27.2747 20.875 29.0006 20.875C30.7265 20.875 32.1256 22.2741 32.1256 24C32.1256 25.7259 30.7265 27.125 29.0006 27.125Z" fill="white"/>
      <path d="M17.3334 37.125C15.6076 37.125 14.2084 35.7259 14.2084 34C14.2084 32.2741 15.6076 30.875 17.3334 30.875C19.0593 30.875 20.4584 32.2741 20.4584 34C20.4584 35.7259 19.0593 37.125 17.3334 37.125Z" fill="white"/>
    </symbol>

    <symbol id="plusElement" viewBox="0 0 48 48" fill="none">
      <rect x="1.5" y="1.5" width="45" height="45" rx="6.5" fill="white"/>
      <rect x="1.5" y="1.5" width="45" height="45" rx="6.5" stroke="#FDB62B" stroke-width="3"/>
      <g clip-path="url(#clip0_3242_10947)">
      <path d="M25.5652 13.5652C25.5652 13.1501 25.4003 12.752 25.1068 12.4584C24.8132 12.1649 24.4151 12 24 12C23.5849 12 23.1868 12.1649 22.8932 12.4584C22.5997 12.752 22.4348 13.1501 22.4348 13.5652V22.4348H13.5652C13.1501 22.4348 12.752 22.5997 12.4584 22.8932C12.1649 23.1868 12 23.5849 12 24C12 24.4151 12.1649 24.8132 12.4584 25.1068C12.752 25.4003 13.1501 25.5652 13.5652 25.5652H22.4348V34.4348C22.4348 34.8499 22.5997 35.248 22.8932 35.5416C23.1868 35.8351 23.5849 36 24 36C24.4151 36 24.8132 35.8351 25.1068 35.5416C25.4003 35.248 25.5652 34.8499 25.5652 34.4348V25.5652H34.4348C34.8499 25.5652 35.248 25.4003 35.5416 25.1068C35.8351 24.8132 36 24.4151 36 24C36 23.5849 35.8351 23.1868 35.5416 22.8932C35.248 22.5997 34.8499 22.4348 34.4348 22.4348H25.5652V13.5652Z" fill="#FDB62B"/>
      </g>
      <defs>
      <clipPath id="clip0_3242_10947">
      <rect width="24" height="24" fill="white" transform="translate(12 12)"/>
      </clipPath>
      </defs>
    </symbol>

    <symbol id="plusElementNegative" viewBox="0 0 48 48" fill="none">
      <rect x="1.5" y="1.5" width="45" height="45" rx="6.5" fill="#FDB62B"/>
      <rect x="1.5" y="1.5" width="45" height="45" rx="6.5" stroke="#FDB62B" stroke-width="3"/>
      <g clip-path="url(#clip0_3242_10887)">
      <path d="M25.5652 13.5652C25.5652 13.1501 25.4003 12.752 25.1068 12.4584C24.8132 12.1649 24.4151 12 24 12C23.5849 12 23.1868 12.1649 22.8932 12.4584C22.5997 12.752 22.4348 13.1501 22.4348 13.5652V22.4348H13.5652C13.1501 22.4348 12.752 22.5997 12.4584 22.8932C12.1649 23.1868 12 23.5849 12 24C12 24.4151 12.1649 24.8132 12.4584 25.1068C12.752 25.4003 13.1501 25.5652 13.5652 25.5652H22.4348V34.4348C22.4348 34.8499 22.5997 35.248 22.8932 35.5416C23.1868 35.8351 23.5849 36 24 36C24.4151 36 24.8132 35.8351 25.1068 35.5416C25.4003 35.248 25.5652 34.8499 25.5652 34.4348V25.5652H34.4348C34.8499 25.5652 35.248 25.4003 35.5416 25.1068C35.8351 24.8132 36 24.4151 36 24C36 23.5849 35.8351 23.1868 35.5416 22.8932C35.248 22.5997 34.8499 22.4348 34.4348 22.4348H25.5652V13.5652Z" fill="white"/>
      </g>
      <defs>
      <clipPath id="clip0_3242_10887">
      <rect width="24" height="24" fill="white" transform="translate(12 12)"/>
      </clipPath>
      </defs>
    </symbol>

    <symbol id="exit" viewBox="0 0 16 16" fill="none">
      <g clip-path="url(#clip0_3329_2470)">
      <path d="M3.81885 2.34315C3.62316 2.14746 3.35774 2.03752 3.081 2.03752C2.80425 2.03752 2.53884 2.14746 2.34314 2.34315C2.14745 2.53884 2.03752 2.80425 2.03752 3.081C2.03752 3.35774 2.14745 3.62316 2.34315 3.81885L6.5243 8L2.34315 12.1812C2.14745 12.3768 2.03752 12.6423 2.03752 12.919C2.03752 13.1958 2.14745 13.4612 2.34314 13.6569C2.53884 13.8525 2.80425 13.9625 3.081 13.9625C3.35774 13.9625 3.62316 13.8525 3.81885 13.6569L8 9.4757L12.1812 13.6569C12.3768 13.8525 12.6423 13.9625 12.919 13.9625C13.1958 13.9625 13.4612 13.8525 13.6569 13.6569C13.8525 13.4612 13.9625 13.1958 13.9625 12.919C13.9625 12.6423 13.8525 12.3768 13.6569 12.1812L9.4757 8L13.6569 3.81885C13.8525 3.62316 13.9625 3.35774 13.9625 3.081C13.9625 2.80425 13.8525 2.53884 13.6569 2.34315C13.4612 2.14746 13.1958 2.03752 12.919 2.03752C12.6423 2.03752 12.3768 2.14746 12.1812 2.34315L8 6.5243L3.81885 2.34315Z" fill="#3C3C3C"/>
      </g>
      <defs>
      <clipPath id="clip0_3329_2470">
      <rect width="16" height="16" fill="white"/>
      </clipPath>
      </defs>
    </symbol>

    <symbol id="lineChartActive" viewBox="0 0 24 25">
      <rect y="0.5" width="24" height="24" rx="4.5" fill="#48BD98"/>
      <g clip-path="url(#clip0_2897_9113)">
      <path d="M6.00468 7.13158C6.00468 6.78277 6.28265 6.5 6.62554 6.5C6.96843 6.5 7.24639 6.78277 7.24639 7.13158V16.0837L10.075 13.2062C10.1996 13.0794 10.3686 13.0082 10.5449 13.0082H12.5978L16.8656 8.66674C17.1251 8.40275 17.5459 8.40275 17.8054 8.66674C18.0649 8.93073 18.0649 9.35874 17.8054 9.62273L13.343 14.1622C13.2183 14.289 13.0493 14.3602 12.8731 14.3602H10.8201L7.9923 17.2368L17.1801 17.2368C17.523 17.2368 17.801 17.5196 17.801 17.8684C17.801 18.2172 17.523 18.5 17.1801 18.5L6.62554 18.5C6.41123 18.5 6.22228 18.3895 6.11071 18.2215C6.04377 18.1207 6.00468 17.9992 6.00468 17.8684V17.7119C5.99844 17.6586 5.99844 17.6046 6.00468 17.5513V7.13158Z" fill="white"/>
      </g>
      <defs>
      <clipPath id="clip0_2897_9113">
      <rect width="12" height="12" fill="white" transform="translate(6 6.5)"/>
      </clipPath>
      </defs>
    </symbol>

    <symbol id="lineChart" viewBox="0 0 24 25">
      <rect y="0.5" width="24" height="24" rx="4.5" fill="#3B687E"/>
      <g clip-path="url(#clip0_2897_9113)">
      <path d="M6.00468 7.13158C6.00468 6.78277 6.28265 6.5 6.62554 6.5C6.96843 6.5 7.24639 6.78277 7.24639 7.13158V16.0837L10.075 13.2062C10.1996 13.0794 10.3686 13.0082 10.5449 13.0082H12.5978L16.8656 8.66674C17.1251 8.40275 17.5459 8.40275 17.8054 8.66674C18.0649 8.93073 18.0649 9.35874 17.8054 9.62273L13.343 14.1622C13.2183 14.289 13.0493 14.3602 12.8731 14.3602H10.8201L7.9923 17.2368L17.1801 17.2368C17.523 17.2368 17.801 17.5196 17.801 17.8684C17.801 18.2172 17.523 18.5 17.1801 18.5L6.62554 18.5C6.41123 18.5 6.22228 18.3895 6.11071 18.2215C6.04377 18.1207 6.00468 17.9992 6.00468 17.8684V17.7119C5.99844 17.6586 5.99844 17.6046 6.00468 17.5513V7.13158Z" fill="white"/>
      </g>
      <defs>
      <clipPath id="clip0_2897_9113">
      <rect width="12" height="12" fill="white" transform="translate(6 6.5)"/>
      </clipPath>
      </defs>
    </symbol>

    <symbol id="singleValueActive" viewBox="0 0 24 25">
      <rect y="0.5" width="24" height="24" rx="4.5" fill="#48BD98"/>
      <path d="M9 12.5C9 13.3284 8.32843 14 7.5 14C6.67157 14 6 13.3284 6 12.5C6 11.6716 6.67157 11 7.5 11C8.32843 11 9 11.6716 9 12.5Z" fill="white"/>
      <path d="M13.5 12.5C13.5 13.3284 12.8284 14 12 14C11.1716 14 10.5 13.3284 10.5 12.5C10.5 11.6716 11.1716 11 12 11C12.8284 11 13.5 11.6716 13.5 12.5Z" fill="white"/>
      <path d="M18 12.5C18 13.3284 17.3284 14 16.5 14C15.6716 14 15 13.3284 15 12.5C15 11.6716 15.6716 11 16.5 11C17.3284 11 18 11.6716 18 12.5Z" fill="white"/>
    </symbol>

    <symbol id="singleValue" viewBox="0 0 24 25">
      <rect y="0.5" width="24" height="24" rx="4.5" fill="#3B687E"/>
      <path d="M9 12.5C9 13.3284 8.32843 14 7.5 14C6.67157 14 6 13.3284 6 12.5C6 11.6716 6.67157 11 7.5 11C8.32843 11 9 11.6716 9 12.5Z" fill="white"/>
      <path d="M13.5 12.5C13.5 13.3284 12.8284 14 12 14C11.1716 14 10.5 13.3284 10.5 12.5C10.5 11.6716 11.1716 11 12 11C12.8284 11 13.5 11.6716 13.5 12.5Z" fill="white"/>
      <path d="M18 12.5C18 13.3284 17.3284 14 16.5 14C15.6716 14 15 13.3284 15 12.5C15 11.6716 15.6716 11 16.5 11C17.3284 11 18 11.6716 18 12.5Z" fill="white"/>
    </symbol>

    <symbol id="barChartActive" viewBox="0 0 24 25" >
      <rect y="0.5" width="24" height="24" rx="4.5" fill="#48BD98"/>
      <rect x="6" y="11.75" width="3" height="6.75" rx="1.5" fill="white"/>
      <rect x="10.5" y="6.5" width="3" height="12" rx="1.5" fill="white"/>
      <rect x="15" y="9.5" width="3" height="9" rx="1.5" fill="white"/>
    </symbol>

    <symbol id="barChart" viewBox="0 0 24 25" >
      <rect y="0.5" width="24" height="24" rx="4.5" fill="#3B687E"/>
      <rect x="6" y="11.75" width="3" height="6.75" rx="1.5" fill="white"/>
      <rect x="10.5" y="6.5" width="3" height="12" rx="1.5" fill="white"/>
      <rect x="15" y="9.5" width="3" height="9" rx="1.5" fill="white"/>
    </symbol>

    <symbol id="asc" viewBox="0 0 12 13">
      <path fill-rule="evenodd" clip-rule="evenodd" d="M6 0.5C6.23607 0.5 6.45836 0.611146 6.6 0.8L8.85 3.8C9.02045 4.02726 9.04787 4.33132 8.92083 4.58541C8.79378 4.8395 8.53408 5 8.25 5H3.75C3.46593 5 3.20623 4.8395 3.07918 4.58541C2.95214 4.33132 2.97956 4.02726 3.15 3.8L5.4 0.8C5.54165 0.611146 5.76394 0.5 6 0.5Z" fill="#3C3C3C"/>
      <path fill-rule="evenodd" clip-rule="evenodd" d="M6 12.5C5.76393 12.5 5.54164 12.3889 5.4 12.2L3.15 9.2C2.97956 8.97274 2.95214 8.66868 3.07918 8.41459C3.20623 8.1605 3.46592 8 3.75 8H8.25C8.53408 8 8.79377 8.1605 8.92082 8.41459C9.04786 8.66868 9.02044 8.97274 8.85 9.2L6.6 12.2C6.45836 12.3889 6.23607 12.5 6 12.5Z" fill="#A5A5A5"/>
    </symbol>

    <symbol id="desc" viewBox="0 0 12 13">
      <path fill-rule="evenodd" clip-rule="evenodd" d="M6 0.5C6.23607 0.5 6.45836 0.611146 6.6 0.8L8.85 3.8C9.02045 4.02726 9.04787 4.33132 8.92083 4.58541C8.79378 4.8395 8.53408 5 8.25 5H3.75C3.46593 5 3.20623 4.8395 3.07918 4.58541C2.95214 4.33132 2.97956 4.02726 3.15 3.8L5.4 0.8C5.54165 0.611146 5.76394 0.5 6 0.5Z" fill="#A5A5A5" />
      <path fill-rule="evenodd" clip-rule="evenodd" d="M6 12.5C5.76393 12.5 5.54164 12.3889 5.4 12.2L3.15 9.2C2.97956 8.97274 2.95214 8.66868 3.07918 8.41459C3.20623 8.1605 3.46592 8 3.75 8H8.25C8.53408 8 8.79377 8.1605 8.92082 8.41459C9.04786 8.66868 9.02044 8.97274 8.85 9.2L6.6 12.2C6.45836 12.3889 6.23607 12.5 6 12.5Z" fill="#3C3C3C" />
    </symbol>

    <symbol id="random" viewBox="0 0 12 13">
      <path fill-rule="evenodd" clip-rule="evenodd" d="M6 0.5C6.23607 0.5 6.45836 0.611146 6.6 0.8L8.85 3.8C9.02045 4.02726 9.04787 4.33132 8.92083 4.58541C8.79378 4.8395 8.53408 5 8.25 5H3.75C3.46593 5 3.20623 4.8395 3.07918 4.58541C2.95214 4.33132 2.97956 4.02726 3.15 3.8L5.4 0.8C5.54165 0.611146 5.76394 0.5 6 0.5Z" fill="#A5A5A5" />
      <path fill-rule="evenodd" clip-rule="evenodd" d="M6 12.5C5.76393 12.5 5.54164 12.3889 5.4 12.2L3.15 9.2C2.97956 8.97274 2.95214 8.66868 3.07918 8.41459C3.20623 8.1605 3.46592 8 3.75 8H8.25C8.53408 8 8.79377 8.1605 8.92082 8.41459C9.04786 8.66868 9.02044 8.97274 8.85 9.2L6.6 12.2C6.45836 12.3889 6.23607 12.5 6 12.5Z" fill="#A5A5A5" />
    </symbol>

    <symbol id="max" viewBox="0 0 12 12">
      <path fill-rule="evenodd" clip-rule="evenodd" d="M9.45697 4.34586C9.8041 3.99872 9.8041 3.43591 9.45697 3.08878L6.62854 0.260348C6.28141 -0.0867833 5.71859 -0.0867832 5.37146 0.260349L2.54303 3.08878C2.1959 3.43591 2.1959 3.99872 2.54303 4.34586C2.89017 4.69299 3.45298 4.69299 3.80011 4.34586L5.11111 3.03486L5.11111 11.1111C5.11111 11.602 5.50908 12 6 12C6.49092 12 6.88889 11.602 6.88889 11.1111L6.88889 3.03486L8.19989 4.34586C8.54702 4.69299 9.10983 4.69299 9.45697 4.34586Z" fill="#3C3C3C"/>
    </symbol>

    <symbol id="min" viewBox="0 0 12 12">
      <path fill-rule="evenodd" clip-rule="evenodd" d="M9.45697 7.65414C9.8041 8.00128 9.8041 8.56409 9.45697 8.91122L6.62854 11.7397C6.28141 12.0868 5.71859 12.0868 5.37146 11.7397L2.54303 8.91122C2.1959 8.56409 2.1959 8.00128 2.54303 7.65414C2.89017 7.30701 3.45298 7.30701 3.80011 7.65414L5.11111 8.96514L5.11111 0.888889C5.11111 0.397969 5.50908 -1.83948e-07 6 -1.62489e-07C6.49092 -1.4103e-07 6.88889 0.397969 6.88889 0.888888L6.88889 8.96514L8.19989 7.65414C8.54702 7.30701 9.10983 7.30701 9.45697 7.65414Z" fill="#3C3C3C"/>
    </symbol>

    <symbol id="count" viewBox="0 0 12 12">
      <path d="M3 6C3 6.82843 2.32843 7.5 1.5 7.5C0.671573 7.5 0 6.82843 0 6C0 5.17157 0.671573 4.5 1.5 4.5C2.32843 4.5 3 5.17157 3 6Z" fill="#3C3C3C"/>
      <path d="M7.5 6C7.5 6.82843 6.82843 7.5 6 7.5C5.17157 7.5 4.5 6.82843 4.5 6C4.5 5.17157 5.17157 4.5 6 4.5C6.82843 4.5 7.5 5.17157 7.5 6Z" fill="#3C3C3C"/>
      <path d="M12 6C12 6.82843 11.3284 7.5 10.5 7.5C9.67157 7.5 9 6.82843 9 6C9 5.17157 9.67157 4.5 10.5 4.5C11.3284 4.5 12 5.17157 12 6Z" fill="#3C3C3C"/>
    </symbol>

    <symbol id="average" viewBox="0 0 12 12">
      <path d="M10.3115 2.87012V4.9502H1.68848V2.87012H10.3115ZM10.3115 7.0498V9.12988H1.68848V7.0498H10.3115Z" fill="#3C3C3C"/>
    </symbol>

    <symbol id="sum" viewBox="0 0 12 12">
      <g clip-path="url(#clip0_3155_53531)">
      <path d="M6.78261 0.782609C6.78261 0.575048 6.70016 0.375988 6.55339 0.229221C6.40662 0.0824531 6.20756 0 6 0C5.79244 0 5.59338 0.0824531 5.44661 0.229221C5.29984 0.375988 5.21739 0.575048 5.21739 0.782609V5.21739H0.782609C0.575048 5.21739 0.375988 5.29984 0.229221 5.44661C0.0824531 5.59338 0 5.79244 0 6C0 6.20756 0.0824531 6.40662 0.229221 6.55339C0.375988 6.70016 0.575048 6.78261 0.782609 6.78261H5.21739V11.2174C5.21739 11.425 5.29984 11.624 5.44661 11.7708C5.59338 11.9175 5.79244 12 6 12C6.20756 12 6.40662 11.9175 6.55339 11.7708C6.70016 11.624 6.78261 11.425 6.78261 11.2174V6.78261H11.2174C11.425 6.78261 11.624 6.70016 11.7708 6.55339C11.9175 6.40662 12 6.20756 12 6C12 5.79244 11.9175 5.59338 11.7708 5.44661C11.624 5.29984 11.425 5.21739 11.2174 5.21739H6.78261V0.782609Z" fill="#3C3C3C"/>
      </g>
      <defs>
      <clipPath id="clip0_3155_53531">
      <rect width="12" height="12" fill="white"/>
      </clipPath>
      </defs>
    </symbol>

    <symbol id="arrowRight" viewBox="0 0 20 21">
      <path fill-rule="evenodd" clip-rule="evenodd" d="M7.55327 6.60558C7.89206 6.43619 8.29747 6.47274 8.60049 6.70001L12.6005 9.70001C12.8523 9.88886 13.0005 10.1852 13.0005 10.5C13.0005 10.8148 12.8523 11.1112 12.6005 11.3L8.60049 14.3C8.29747 14.5273 7.89206 14.5638 7.55327 14.3944C7.21449 14.225 7.00049 13.8788 7.00049 13.5L7.00049 7.50001C7.00049 7.12123 7.21449 6.77497 7.55327 6.60558Z" fill="white"/>
    </symbol>

    <symbol id="arrowDown" viewBox="0 0 20 21">
    <path fill-rule="evenodd" clip-rule="evenodd" d="M13.8944 8.05352C14.0638 8.3923 14.0273 8.79771 13.8 9.10073L10.8 13.1007C10.6111 13.3525 10.3148 13.5007 9.99999 13.5007C9.68524 13.5007 9.38885 13.3525 9.19999 13.1007L6.19999 9.10073C5.97273 8.79771 5.93617 8.3923 6.10557 8.05352C6.27496 7.71473 6.62122 7.50073 6.99999 7.50073L13 7.50073C13.3788 7.50073 13.725 7.71473 13.8944 8.05352Z" fill="white"/>
    </symbol>

  </defs>
</svg>