<svg xmlns="http://www.w3.org/2000/svg">
  <defs>
    <symbol id="block" viewBox="0 0 16 18">
      <path d="M14.5999 11.9304V6.06371C14.5996 5.80651 14.5317 5.5539 14.403 5.33123C14.2743 5.10856 14.0893 4.92364 13.8666 4.79504L8.73324 1.86172C8.51027 1.73299 8.25736 1.66522 7.9999 1.66522C7.74245 1.66522 7.48953 1.73299 7.26657 1.86172L2.13324 4.79504C1.91049 4.92364 1.72549 5.10856 1.59677 5.33123C1.46806 5.5539 1.40017 5.80651 1.3999 6.06371V11.9304C1.40017 12.1876 1.46806 12.4402 1.59677 12.6628C1.72549 12.8855 1.91049 13.0704 2.13324 13.199L7.26657 16.1324C7.48953 16.2611 7.74245 16.3289 7.9999 16.3289C8.25736 16.3289 8.51027 16.2611 8.73324 16.1324L13.8666 13.199C14.0893 13.0704 14.2743 12.8855 14.403 12.6628C14.5317 12.4402 14.5996 12.1876 14.5999 11.9304Z" stroke="currentColor" stroke-width="1.46667" stroke-linecap="round" stroke-linejoin="round"/>
      <path d="M4.69995 3.28455L7.99995 5.19121L11.3 3.28455" stroke="currentColor" stroke-width="1.46667" stroke-linecap="round" stroke-linejoin="round"/>
      <path d="M4.6999 14.7098V10.9039L1.3999 8.99719" stroke="currentColor" stroke-width="1.46667" stroke-linecap="round" stroke-linejoin="round"/>
      <path d="M14.6 8.99719L11.3 10.9039V14.7098" stroke="currentColor" stroke-width="1.46667" stroke-linecap="round" stroke-linejoin="round"/>
      <path d="M1.59814 5.30109L8.00014 9.00441L14.4021 5.30109" stroke="currentColor" stroke-width="1.46667" stroke-linecap="round" stroke-linejoin="round"/>
      <path d="M8 16.3892V8.99719" stroke="currentColor" stroke-width="1.46667" stroke-linecap="round" stroke-linejoin="round"/>
    </symbol>

    <symbol id="chart" viewBox="0 0 16 16">
      <path d="M13.25 15C13.7312 15 14.1434 14.8285 14.4864 14.4855C14.8294 14.1425 15.0006 13.7307 15 13.25V7.125C15 6.64375 14.8285 6.23163 14.4855 5.88863C14.1425 5.54563 13.7307 5.37442 13.25 5.375C12.7687 5.375 12.3566 5.5465 12.0136 5.8895C11.6706 6.2325 11.4994 6.64433 11.5 7.125V13.25C11.5 13.7312 11.6715 14.1434 12.0145 14.4864C12.3575 14.8294 12.7693 15.0006 13.25 15ZM8 15C8.48125 15 8.89337 14.8285 9.23637 14.4855C9.57937 14.1425 9.75058 13.7307 9.75 13.25V2.75C9.75 2.26875 9.5785 1.85663 9.2355 1.51363C8.8925 1.17063 8.48067 0.999418 8 1C7.51875 1 7.10663 1.1715 6.76363 1.5145C6.42062 1.8575 6.24942 2.26933 6.25 2.75V13.25C6.25 13.7312 6.4215 14.1434 6.7645 14.4864C7.1075 14.8294 7.51933 15.0006 8 15ZM2.75 15C3.23125 15 3.64338 14.8285 3.98638 14.4855C4.32938 14.1425 4.50058 13.7307 4.5 13.25V10.625C4.5 10.1438 4.3285 9.73162 3.9855 9.38863C3.6425 9.04562 3.23067 8.87442 2.75 8.875C2.26875 8.875 1.85663 9.0465 1.51363 9.3895C1.17063 9.7325 0.999418 10.1443 1 10.625V13.25C1 13.7312 1.1715 14.1434 1.5145 14.4864C1.8575 14.8294 2.26933 15.0006 2.75 15Z" fill="var(--icon-fill)"/>
      <defs>
      <clipPath id="clip0_3067_14753">
      <rect width="14" height="14" fill="white" transform="matrix(-1 0 0 1 15 1)"/>
      </clipPath>
      </defs>
    </symbol>
  </defs>
</svg>