<svg width="18" height="18" viewBox="0 0 18 18" fill="none" xmlns="http://www.w3.org/2000/svg">
<rect x="0.3" y="0.3" width="17.4" height="17.4" rx="3.7" fill="#F4F4F4"/>
<path d="M13.9965 11.108C13.9965 11.8999 13.99 12.6918 13.9999 13.4834C14.004 13.7945 13.7815 14.0089 13.4767 14.0076C11.9471 14.0008 10.4173 14.0279 8.88833 13.9967C7.28171 13.964 5.97807 13.2803 5.00517 12.0023C4.20701 10.9532 3.88375 9.75412 4.03695 8.44798C4.22573 6.83731 5.02732 5.59389 6.40242 4.73551C7.3307 4.15608 8.35352 3.91645 9.44187 4.02753C11.2363 4.21069 12.5652 5.11587 13.4299 6.69191C13.8093 7.38367 13.99 8.13627 13.9946 8.92694C13.999 9.65396 13.9956 10.381 13.9956 11.1077C13.9962 11.108 13.9965 11.108 13.9965 11.108ZM13.0592 9.00089C13.0573 6.75525 11.2385 4.94114 8.99099 4.94301C6.75626 4.94488 4.94089 6.76523 4.94152 9.0037C4.94214 11.2468 6.75938 13.0669 8.99786 13.0656C11.2448 13.0641 13.0611 11.2465 13.0592 9.00089Z" fill="#072F43"/>
<path d="M8.53169 10.3038C8.53169 10.0544 8.52982 9.80514 8.53294 9.55583C8.53387 9.49062 8.51172 9.47221 8.44807 9.47252C7.96255 9.47471 7.47673 9.47346 6.99122 9.47346C6.81804 9.47346 6.67701 9.40918 6.58059 9.26222C6.48074 9.11026 6.47263 8.94801 6.55407 8.78856C6.63582 8.62818 6.77436 8.53863 6.95565 8.53707C7.44116 8.53302 7.92698 8.5352 8.4125 8.53458C8.53169 8.53458 8.53169 8.53426 8.53169 8.41601C8.53169 7.93549 8.52857 7.45528 8.53294 6.97476C8.53606 6.63934 8.84746 6.4231 9.16136 6.53169C9.34826 6.59628 9.4687 6.77288 9.46964 6.99161C9.47089 7.46683 9.46995 7.94204 9.46995 8.41725C9.46995 8.53458 9.46995 8.53489 9.58946 8.53489C10.0725 8.5352 10.5555 8.53395 11.0385 8.53676C11.2625 8.53801 11.4401 8.68778 11.4884 8.90651C11.5346 9.11557 11.4332 9.33523 11.2341 9.42322C11.1565 9.45755 11.0638 9.47096 10.9777 9.4719C10.5049 9.47627 10.0322 9.47564 9.55981 9.47221C9.48742 9.47159 9.46808 9.49249 9.46839 9.56395C9.4712 10.052 9.47089 10.5403 9.46902 11.0283C9.46808 11.2994 9.25871 11.5075 8.9963 11.5044C8.73794 11.5016 8.53731 11.3022 8.53294 11.0358C8.52857 10.7921 8.53169 10.5481 8.53169 10.3038Z" fill="#072F43"/>
<rect x="0.3" y="0.3" width="17.4" height="17.4" rx="3.7" stroke="#CBCBCB" stroke-width="0.6"/>
</svg>
