<svg width="65" height="64" viewBox="0 0 65 64" fill="none" xmlns="http://www.w3.org/2000/svg">
<rect x="0.5" width="64" height="64" rx="6" fill="#ECECEC"/>
<g clip-path="url(#clip0_2897_6263)">
<path d="M38.5 40C39.05 40 39.521 39.804 39.913 39.412C40.305 39.02 40.5007 38.5493 40.5 38V31C40.5 30.45 40.304 29.979 39.912 29.587C39.52 29.195 39.0493 28.9993 38.5 29C37.95 29 37.479 29.196 37.087 29.588C36.695 29.98 36.4993 30.4507 36.5 31V38C36.5 38.55 36.696 39.021 37.088 39.413C37.48 39.805 37.9507 40.0007 38.5 40ZM32.5 40C33.05 40 33.521 39.804 33.913 39.412C34.305 39.02 34.5007 38.5493 34.5 38V26C34.5 25.45 34.304 24.979 33.912 24.587C33.52 24.195 33.0493 23.9993 32.5 24C31.95 24 31.479 24.196 31.087 24.588C30.695 24.98 30.4993 25.4507 30.5 26V38C30.5 38.55 30.696 39.021 31.088 39.413C31.48 39.805 31.9507 40.0007 32.5 40ZM26.5 40C27.05 40 27.521 39.804 27.913 39.412C28.305 39.02 28.5007 38.5493 28.5 38V35C28.5 34.45 28.304 33.979 27.912 33.587C27.52 33.195 27.0493 32.9993 26.5 33C25.95 33 25.479 33.196 25.087 33.588C24.695 33.98 24.4993 34.4507 24.5 35V38C24.5 38.55 24.696 39.021 25.088 39.413C25.48 39.805 25.9507 40.0007 26.5 40Z" fill="#3C3C3C"/>
</g>
<defs>
<clipPath id="clip0_2897_6263">
<rect width="16" height="16" fill="white" transform="matrix(-1 0 0 1 40.5 24)"/>
</clipPath>
</defs>
</svg>
