<svg width="65" height="64" viewBox="0 0 65 64" fill="none" xmlns="http://www.w3.org/2000/svg">
<rect x="0.5" width="64" height="64" rx="6" fill="#ECECEC"/>
<path d="M24.0859 27.1406L20.6875 37H18.6328L22.9141 25.625H24.2266L24.0859 27.1406ZM26.9297 37L23.5234 27.1406L23.375 25.625H24.6953L28.9922 37H26.9297ZM26.7656 32.7812V34.3359H20.5781V32.7812H26.7656ZM30.0859 25H31.9688V35.1953L31.7891 37H30.0859V25ZM37.4844 32.6953V32.8594C37.4844 33.4844 37.4141 34.0599 37.2734 34.5859C37.138 35.1068 36.9297 35.5599 36.6484 35.9453C36.3724 36.3307 36.0286 36.6302 35.6172 36.8438C35.2109 37.0521 34.7396 37.1562 34.2031 37.1562C33.6771 37.1562 33.2188 37.0573 32.8281 36.8594C32.4375 36.6615 32.1094 36.3802 31.8438 36.0156C31.5833 35.651 31.3724 35.2161 31.2109 34.7109C31.0495 34.2057 30.9349 33.6484 30.8672 33.0391V32.5156C30.9349 31.901 31.0495 31.3438 31.2109 30.8438C31.3724 30.3385 31.5833 29.9036 31.8438 29.5391C32.1094 29.1693 32.4349 28.8854 32.8203 28.6875C33.2109 28.4896 33.6667 28.3906 34.1875 28.3906C34.7292 28.3906 35.2057 28.4948 35.6172 28.7031C36.0339 28.9115 36.3802 29.2083 36.6562 29.5938C36.9323 29.974 37.138 30.4271 37.2734 30.9531C37.4141 31.4792 37.4844 32.0599 37.4844 32.6953ZM35.6016 32.8594V32.6953C35.6016 32.3151 35.5703 31.9583 35.5078 31.625C35.4453 31.2865 35.3411 30.9896 35.1953 30.7344C35.0547 30.4792 34.862 30.2786 34.6172 30.1328C34.3776 29.9818 34.0781 29.9062 33.7188 29.9062C33.3854 29.9062 33.099 29.9635 32.8594 30.0781C32.6198 30.1927 32.4193 30.349 32.2578 30.5469C32.0964 30.7448 31.9688 30.974 31.875 31.2344C31.7865 31.4948 31.7266 31.776 31.6953 32.0781V33.4922C31.7422 33.8828 31.8411 34.2422 31.9922 34.5703C32.1484 34.8932 32.3672 35.1536 32.6484 35.3516C32.9297 35.5443 33.2917 35.6406 33.7344 35.6406C34.0833 35.6406 34.3776 35.5703 34.6172 35.4297C34.8568 35.2891 35.0469 35.0938 35.1875 34.8438C35.3333 34.5885 35.4375 34.2917 35.5 33.9531C35.5677 33.6146 35.6016 33.25 35.6016 32.8594ZM42.5312 35.6562C42.8385 35.6562 43.1146 35.5964 43.3594 35.4766C43.6094 35.3516 43.8099 35.1797 43.9609 34.9609C44.1172 34.7422 44.2031 34.4896 44.2188 34.2031H45.9922C45.9818 34.75 45.8203 35.2474 45.5078 35.6953C45.1953 36.1432 44.7812 36.5 44.2656 36.7656C43.75 37.026 43.1797 37.1562 42.5547 37.1562C41.9089 37.1562 41.3464 37.0469 40.8672 36.8281C40.388 36.6042 39.9896 36.2969 39.6719 35.9062C39.3542 35.5156 39.1146 35.0651 38.9531 34.5547C38.7969 34.0443 38.7188 33.4974 38.7188 32.9141V32.6406C38.7188 32.0573 38.7969 31.5104 38.9531 31C39.1146 30.4844 39.3542 30.0312 39.6719 29.6406C39.9896 29.25 40.388 28.9453 40.8672 28.7266C41.3464 28.5026 41.9062 28.3906 42.5469 28.3906C43.224 28.3906 43.8177 28.526 44.3281 28.7969C44.8385 29.0625 45.2396 29.4349 45.5312 29.9141C45.8281 30.388 45.9818 30.9401 45.9922 31.5703H44.2188C44.2031 31.2578 44.125 30.9766 43.9844 30.7266C43.849 30.4714 43.6562 30.2682 43.4062 30.1172C43.1615 29.9661 42.8672 29.8906 42.5234 29.8906C42.1432 29.8906 41.8281 29.9688 41.5781 30.125C41.3281 30.276 41.1328 30.4844 40.9922 30.75C40.8516 31.0104 40.75 31.3047 40.6875 31.6328C40.6302 31.9557 40.6016 32.2917 40.6016 32.6406V32.9141C40.6016 33.263 40.6302 33.6016 40.6875 33.9297C40.7448 34.2578 40.8438 34.5521 40.9844 34.8125C41.1302 35.0677 41.3281 35.2734 41.5781 35.4297C41.8281 35.5807 42.1458 35.6562 42.5312 35.6562Z" fill="black"/>
</svg>
